<?xml version="1.0" encoding="utf-8"?>
<!-- Generator: Adobe Illustrator 16.0.0, SVG Export Plug-In . SVG Version: 6.00 Build 0)  -->
<!DOCTYPE svg PUBLIC "-//W3C//DTD SVG 1.1//EN" "http://www.w3.org/Graphics/SVG/1.1/DTD/svg11.dtd">
<svg version="1.1" id="Layer_1" xmlns="http://www.w3.org/2000/svg" xmlns:xlink="http://www.w3.org/1999/xlink" x="0px" y="0px"
	 width="512px" height="512px" viewBox="0 0 512 512" enable-background="new 0 0 512 512" xml:space="preserve">
<g>
	<g>
		<g>
			<path fill="#2C2F33" d="M15.502,470.422c-7.835,3.865-12.223,12.223-10.865,20.789c1.358,8.671,7.94,15.356,16.611,16.715
				c6.373,1.045,13.267,1.463,20.267,1.463c19.013,0,55.264-3.866,90.783-29.147C170.011,501.031,212.634,512,255.988,512
				c68.427,0,132.675-26.64,181.044-75.009c99.872-99.872,99.872-262.215,0-362.087C388.663,26.64,324.415,0,255.988,0
				S123.313,26.64,74.945,75.008c-93.917,93.917-100.081,244.457-15.148,345.477C48.096,444.932,33.157,461.751,15.502,470.422z
				 M89.57,89.634c44.399-44.399,103.528-68.949,166.418-68.949c62.891,0,121.915,24.446,166.419,68.949
				c91.723,91.724,91.723,241.009,0,332.837c-44.399,44.399-103.528,68.949-166.419,68.949c-41.996,0-83.157-11.179-119.198-32.386
				c-1.671-0.939-3.448-1.462-5.224-1.462c-2.298,0-4.492,0.731-6.373,2.193c-32.49,25.177-66.442,28.938-83.784,28.938
				c-5.014,0-9.924-0.312-14.625-0.939c22.565-11.806,40.847-33.639,54.533-64.875c1.567-3.656,0.94-7.939-1.776-10.97
				C-2.571,319.047,1.817,177.492,89.57,89.634z"/>
		</g>
		<text transform="matrix(1 0 0 1 64.5 275.5)" fill="#474747" font-family="'Lato-Bold'" font-size="60">Cliquez - moi !</text>
	</g>
</g>
</svg>
